<svg width="417" height="307" viewBox="0 0 417 307" fill="none" xmlns="http://www.w3.org/2000/svg">
<path d="M0 47.2308C0 21.1459 20.1835 0 45.0811 0H371.919C396.817 0 417 21.1459 417 47.2308V259.769C417 285.854 396.817 307 371.919 307H45.0811C20.1835 307 0 285.854 0 259.769V47.2308Z" fill="#89E2C1"/>
<path d="M33 82.0825C33 62.1699 49.1423 46.0276 69.0549 46.0276H330.453C350.366 46.0276 366.508 62.1699 366.508 82.0825V244.33C366.508 264.242 350.366 280.385 330.453 280.385H69.0549C49.1423 280.385 33 264.242 33 244.33V82.0825Z" fill="#C593FF"/>
<path fill-rule="evenodd" clip-rule="evenodd" d="M330.453 55.0413H69.0549C54.1205 55.0413 42.0137 67.1481 42.0137 82.0825V244.33C42.0137 259.264 54.1205 271.371 69.0549 271.371H330.453C345.388 271.371 357.494 259.264 357.494 244.33V82.0825C357.494 67.1481 345.388 55.0413 330.453 55.0413ZM69.0549 46.0276C49.1423 46.0276 33 62.1699 33 82.0825V244.33C33 264.242 49.1423 280.385 69.0549 280.385H330.453C350.366 280.385 366.508 264.242 366.508 244.33V82.0825C366.508 62.1699 350.366 46.0276 330.453 46.0276H69.0549Z" fill="black"/>
<path d="M51.0312 64.0549C51.0312 44.1423 67.1736 28 87.0862 28H348.484C368.397 28 384.539 44.1423 384.539 64.0549V226.302C384.539 246.215 368.397 262.357 348.484 262.357H87.0862C67.1736 262.357 51.0312 246.215 51.0312 226.302V64.0549Z" fill="#C593FF"/>
<path fill-rule="evenodd" clip-rule="evenodd" d="M348.484 37.0137H87.0862C72.1517 37.0137 60.045 49.1205 60.045 64.0549V226.302C60.045 241.237 72.1517 253.343 87.0862 253.343H348.484C363.419 253.343 375.526 241.237 375.526 226.302V64.0549C375.526 49.1205 363.419 37.0137 348.484 37.0137ZM87.0862 28C67.1736 28 51.0312 44.1423 51.0312 64.0549V226.302C51.0312 246.215 67.1736 262.357 87.0862 262.357H348.484C368.397 262.357 384.539 246.215 384.539 226.302V64.0549C384.539 44.1423 368.397 28 348.484 28H87.0862Z" fill="black"/>
<path d="M100.95 226.302H87.0859V172.22H117.878V183.946H100.95V194.267H116.56V205.994H100.95V226.302Z" fill="black"/>
<path d="M167.74 198.114C167.74 204.403 166.612 209.631 164.355 213.799C162.097 217.967 158.914 221.099 154.803 223.195C150.717 225.267 145.905 226.302 140.369 226.302H123.512V172.22H141.546C147.153 172.22 151.905 173.219 155.801 175.216C159.698 177.214 162.656 180.136 164.675 183.983C166.719 187.831 167.74 192.541 167.74 198.114ZM153.128 198.632C153.128 195.352 152.701 192.64 151.845 190.494C151.014 188.324 149.754 186.709 148.067 185.648C146.381 184.563 144.254 184.02 141.688 184.02H137.59V214.317H140.726C145.003 214.317 148.139 213.035 150.135 210.47C152.13 207.88 153.128 203.935 153.128 198.632Z" fill="black"/>
<path d="M223.804 226.302H205.343L186.311 188.201H185.99C186.109 189.36 186.216 190.753 186.311 192.381C186.406 194.008 186.489 195.673 186.561 197.375C186.632 199.052 186.668 200.568 186.668 201.925V226.302H174.194V172.22H192.584L211.544 209.804H211.758C211.686 208.62 211.615 207.251 211.544 205.698C211.472 204.119 211.401 202.529 211.33 200.926C211.282 199.323 211.259 197.905 211.259 196.672V172.22H223.804V226.302Z" fill="black"/>
<path d="M276.374 198.114C276.374 204.403 275.246 209.631 272.989 213.799C270.731 217.967 267.548 221.099 263.437 223.195C259.351 225.267 254.539 226.302 249.003 226.302H232.146V172.22H250.18C255.787 172.22 260.539 173.219 264.435 175.216C268.332 177.214 271.29 180.136 273.309 183.983C275.353 187.831 276.374 192.541 276.374 198.114ZM261.762 198.632C261.762 195.352 261.335 192.64 260.479 190.494C259.648 188.324 258.388 186.709 256.702 185.648C255.015 184.563 252.888 184.02 250.322 184.02H246.224V214.317H249.36C253.637 214.317 256.773 213.035 258.769 210.47C260.764 207.88 261.762 203.935 261.762 198.632Z" fill="black"/>
<path d="M103.221 133.521C103.221 134.683 102.928 135.787 102.342 136.832C101.756 137.867 100.843 138.707 99.6025 139.351C98.3721 139.996 96.7803 140.318 94.8271 140.318C93.8506 140.318 92.9912 140.274 92.249 140.186C91.5166 140.098 90.833 139.957 90.1982 139.761C89.5635 139.556 88.9043 139.292 88.2207 138.97V133.814C89.3828 134.4 90.5547 134.849 91.7363 135.162C92.918 135.464 93.9873 135.616 94.9443 135.616C95.5205 135.616 95.9893 135.547 96.3506 135.411C96.7217 135.274 96.9951 135.088 97.1709 134.854C97.3467 134.61 97.4346 134.332 97.4346 134.019C97.4346 133.648 97.3027 133.335 97.0391 133.082C96.7852 132.818 96.375 132.544 95.8086 132.261C95.2422 131.978 94.4951 131.626 93.5674 131.207C92.7764 130.835 92.0586 130.455 91.4141 130.064C90.7793 129.673 90.2324 129.229 89.7734 128.731C89.3242 128.223 88.9775 127.632 88.7334 126.958C88.4893 126.285 88.3672 125.489 88.3672 124.571C88.3672 123.194 88.7041 122.042 89.3779 121.114C90.0615 120.176 91.0088 119.473 92.2197 119.004C93.4404 118.536 94.8467 118.301 96.4385 118.301C97.835 118.301 99.0898 118.458 100.203 118.77C101.326 119.083 102.332 119.439 103.221 119.839L101.448 124.307C100.53 123.887 99.627 123.555 98.7383 123.311C97.8496 123.057 97.0244 122.93 96.2627 122.93C95.7646 122.93 95.3545 122.994 95.0322 123.121C94.7197 123.238 94.4854 123.399 94.3291 123.604C94.1826 123.809 94.1094 124.043 94.1094 124.307C94.1094 124.639 94.2363 124.937 94.4902 125.201C94.7539 125.464 95.1885 125.752 95.7939 126.065C96.4092 126.368 97.2441 126.763 98.2988 127.251C99.3438 127.72 100.232 128.228 100.965 128.775C101.697 129.312 102.254 129.961 102.635 130.723C103.025 131.475 103.221 132.408 103.221 133.521ZM114.904 147.232V140.362C114.904 139.952 114.918 139.546 114.948 139.146C114.977 138.736 115.021 138.331 115.079 137.93H114.904C114.513 138.584 113.966 139.146 113.263 139.615C112.57 140.083 111.657 140.318 110.524 140.318C108.756 140.318 107.321 139.59 106.217 138.135C105.123 136.68 104.577 134.551 104.577 131.749C104.577 129.874 104.83 128.296 105.338 127.017C105.846 125.738 106.554 124.771 107.462 124.117C108.371 123.462 109.42 123.135 110.612 123.135C111.764 123.135 112.697 123.36 113.41 123.809C114.132 124.258 114.708 124.815 115.138 125.479H115.255L115.68 123.428H120.631V147.232H114.904ZM112.853 135.879C113.478 135.879 113.971 135.752 114.332 135.499C114.694 135.235 114.953 134.844 115.109 134.327C115.265 133.799 115.343 133.14 115.343 132.349V131.661C115.343 130.362 115.167 129.356 114.816 128.643C114.464 127.93 113.781 127.574 112.765 127.574C111.974 127.574 111.378 127.935 110.978 128.658C110.587 129.38 110.392 130.44 110.392 131.836C110.392 133.282 110.592 134.317 110.993 134.942C111.403 135.567 112.023 135.879 112.853 135.879ZM139.844 123.428V140.025H135.522L134.804 137.959H134.468C134.126 138.516 133.691 138.97 133.164 139.322C132.646 139.664 132.07 139.913 131.435 140.069C130.801 140.235 130.141 140.318 129.458 140.318C128.374 140.318 127.392 140.108 126.513 139.688C125.644 139.268 124.951 138.609 124.433 137.71C123.926 136.812 123.672 135.655 123.672 134.239V123.428H129.399V132.496C129.399 133.57 129.551 134.39 129.853 134.957C130.166 135.513 130.674 135.792 131.377 135.792C132.099 135.792 132.656 135.596 133.047 135.206C133.447 134.815 133.725 134.239 133.882 133.477C134.038 132.715 134.116 131.788 134.116 130.694V123.428H139.844ZM150.999 123.135C153.099 123.135 154.739 123.658 155.921 124.703C157.103 125.738 157.694 127.217 157.694 129.141V140.025H153.724L152.625 137.828H152.508C152.039 138.414 151.556 138.892 151.058 139.263C150.57 139.625 150.008 139.888 149.373 140.054C148.738 140.23 147.962 140.318 147.044 140.318C146.087 140.318 145.228 140.123 144.466 139.732C143.704 139.341 143.104 138.75 142.664 137.959C142.225 137.168 142.005 136.167 142.005 134.957C142.005 133.179 142.62 131.861 143.851 131.001C145.081 130.142 146.863 129.659 149.197 129.551L151.966 129.463V129.229C151.966 128.487 151.78 127.959 151.409 127.647C151.048 127.334 150.56 127.178 149.945 127.178C149.29 127.178 148.558 127.295 147.747 127.53C146.946 127.754 146.141 128.047 145.33 128.409L143.675 124.629C144.632 124.141 145.716 123.77 146.927 123.516C148.138 123.262 149.495 123.135 150.999 123.135ZM151.995 132.613L150.677 132.671C149.622 132.71 148.88 132.896 148.45 133.228C148.03 133.55 147.821 134.014 147.821 134.62C147.821 135.186 147.972 135.606 148.275 135.879C148.577 136.143 148.978 136.275 149.476 136.275C150.169 136.275 150.76 136.055 151.248 135.616C151.746 135.176 151.995 134.605 151.995 133.902V132.613ZM165.846 140.318C164.137 140.318 162.731 139.59 161.628 138.135C160.524 136.68 159.972 134.551 159.972 131.749C159.972 128.917 160.539 126.773 161.671 125.318C162.804 123.863 164.269 123.135 166.066 123.135C166.808 123.135 167.448 123.243 167.985 123.458C168.522 123.672 168.986 123.965 169.377 124.336C169.777 124.698 170.124 125.108 170.417 125.567H170.534C170.465 125.147 170.402 124.571 170.343 123.838C170.285 123.096 170.255 122.374 170.255 121.67V117.232H176.027V140.025H171.706L170.475 137.93H170.255C169.992 138.37 169.66 138.77 169.259 139.131C168.869 139.493 168.39 139.781 167.824 139.996C167.267 140.21 166.608 140.318 165.846 140.318ZM168.19 135.792C169.108 135.792 169.753 135.503 170.124 134.927C170.504 134.341 170.71 133.453 170.739 132.261V131.807C170.739 130.499 170.553 129.498 170.182 128.804C169.821 128.101 169.137 127.75 168.131 127.75C167.448 127.75 166.881 128.082 166.432 128.746C165.983 129.41 165.758 130.44 165.758 131.836C165.758 133.213 165.983 134.219 166.432 134.854C166.891 135.479 167.477 135.792 168.19 135.792ZM197.811 140.025H191.937V129.434C191.937 129.239 191.937 128.882 191.937 128.365C191.937 127.837 191.942 127.256 191.952 126.622C191.971 125.987 191.996 125.416 192.025 124.908C191.771 125.21 191.532 125.469 191.307 125.684C191.092 125.899 190.882 126.099 190.677 126.285L188.246 128.292L185.243 124.6L192.596 118.609H197.811V140.025ZM211.603 127.486H220.846V139.029C219.743 139.41 218.478 139.722 217.053 139.966C215.627 140.201 214.133 140.318 212.57 140.318C210.51 140.318 208.703 139.917 207.15 139.117C205.597 138.316 204.387 137.1 203.517 135.469C202.648 133.829 202.214 131.758 202.214 129.258C202.214 127.012 202.643 125.074 203.503 123.443C204.362 121.802 205.627 120.538 207.297 119.649C208.976 118.75 211.032 118.301 213.464 118.301C214.802 118.301 216.071 118.428 217.272 118.682C218.473 118.936 219.518 119.258 220.407 119.649L218.576 124.19C217.804 123.809 217.004 123.526 216.174 123.34C215.344 123.145 214.45 123.047 213.493 123.047C212.214 123.047 211.183 123.335 210.402 123.912C209.631 124.488 209.069 125.259 208.718 126.226C208.366 127.183 208.19 128.243 208.19 129.405C208.19 130.733 208.376 131.856 208.747 132.774C209.128 133.682 209.679 134.375 210.402 134.854C211.135 135.323 212.018 135.557 213.054 135.557C213.395 135.557 213.81 135.533 214.299 135.484C214.797 135.435 215.173 135.376 215.427 135.308V131.954H211.603V127.486Z" fill="black"/>
</svg>
